<svg xmlns:rdf="http://www.w3.org/1999/02/22-rdf-syntax-ns#" xmlns="http://www.w3.org/2000/svg" height="100" width="100" version="1.1" xmlns:cc="http://creativecommons.org/ns#" xmlns:dc="http://purl.org/dc/elements/1.1/" viewBox="0 0 100 100">
<g>
<path style="fill:#ffffff" d="m94.481 100c3.048 0 5.519-2.472 5.519-5.519v-88.96c0-3.0505-2.471-5.521-5.519-5.521h-88.961c-3.0509-0.00004-5.52 2.4705-5.52 5.5206v88.96c0 3.0472 2.4691 5.5191 5.5193 5.5191z"/>
<path d="m5.5195-0.00009c-3.0501 0-5.5195 2.4714-5.5195 5.5215v88.959c0 3.0472 2.4694 5.5195 5.5195 5.5195h47.893v-38.725h-13.031v-15.092h13.031v-11.131c0-12.916 7.8886-19.947 19.41-19.947 5.5193 0 10.263 0.41079 11.646 0.59375v13.498l-7.9902 0.004c-6.2672 0-7.4805 2.9769-7.4805 7.3457v9.6367h14.943l-1.9453 15.092h-12.998v38.725h25.482c3.049 0 5.52-2.472 5.52-5.52v-88.958c0-3.0506-2.471-5.522-5.52-5.522h-88.96z" style="fill:#000000"/>
</g>
</svg>
