<svg xmlns:rdf="http://www.w3.org/1999/02/22-rdf-syntax-ns#" xmlns="http://www.w3.org/2000/svg" height="100" width="100" version="1.1" xmlns:cc="http://creativecommons.org/ns#" xmlns:dc="http://purl.org/dc/elements/1.1/" viewBox="0 0 100 100">
<g>
<path d="m39.25 54.757h11.26c-1.9766 5.5882-7.3298 9.5949-13.597 9.5486-7.6045-0.05615-13.892-6.1395-14.188-13.738-0.31645-8.1455 6.2185-14.873 14.295-14.873 3.6928 0 7.0628 1.407 9.6034 3.7127 0.60176 0.54624 1.5178 0.5497 2.1096-0.0074l4.1359-3.8926c0.64675-0.60884 0.6491-1.637 0.0042-2.2479-4.0291-3.8171-9.434-6.1963-15.394-6.3127-12.713-0.24819-23.428 10.175-23.517 22.889-0.08934 12.81 10.268 23.223 23.058 23.223 12.299 0 22.347-9.6303 23.02-21.761 0.01793-0.15209 0.02973-5.2922 0.02973-5.2922h-20.82c-0.85342 0-1.5451 0.69173-1.5451 1.5451v5.662c0 0.85342 0.69189 1.5451 1.5451 1.5451z"/>
<path d="m79.151 46.519v-5.5321c0-0.74788-0.60617-1.354-1.354-1.354h-4.6562c-0.74788 0-1.354 0.60617-1.354 1.354v5.5321h-5.5321c-0.74788 0-1.354 0.60617-1.354 1.354v4.6562c0 0.74788 0.60617 1.354 1.354 1.354h5.5321v5.5321c0 0.74788 0.60617 1.354 1.354 1.354h4.6562c0.74788 0 1.354-0.60617 1.354-1.354v-5.5321h5.5321c0.74788 0 1.354-0.60617 1.354-1.354v-4.6562c0-0.74788-0.60617-1.354-1.354-1.354h-5.5321z"/>
</g>
</svg>
