<svg xmlns:rdf="http://www.w3.org/1999/02/22-rdf-syntax-ns#" xmlns="http://www.w3.org/2000/svg" height="100" width="100" version="1.1" xmlns:cc="http://creativecommons.org/ns#" xmlns:dc="http://purl.org/dc/elements/1.1/" viewBox="0 0 100 100">
<g>
<path d="m59.588 17.318h-15.589c-6.9464 0-11.755 1.5229-16.083 5.0981-3.4037 2.9365-5.4349 7.2043-5.4349 11.417 0 6.49 4.9482 13.387 14.118 13.387 0.88163 0 1.8578-0.09046 2.7191-0.17079l-0.12691 0.3085c-0.36858 0.88298-0.71759 1.716-0.71759 3.0162 0 2.5315 1.2212 4.0929 2.4019 5.6017l0.14851 0.19104-0.26395 0.01823c-3.7864 0.25922-10.834 0.74257-15.982 3.9066-6.0803 3.615-6.5528 8.8737-6.5528 10.399 0 6.0675 5.6543 12.192 18.287 12.192 14.689 0 22.376-8.1041 22.376-16.109 0.0013-5.921-3.4705-8.844-7.1557-11.947l-3.1087-2.4181c-0.96061-0.7959-2.1568-1.7862-2.1568-3.621 0-1.8038 1.1962-2.9946 2.252-4.045l0.11004-0.11139c3.3571-2.6442 7.1617-5.6422 7.1617-12.127 0-6.5197-4.074-9.889-6.033-11.508h5.173c0.06346 0 0.12691-0.01755 0.17957-0.05198l4.4561-2.8015c0.12691-0.08033 0.18632-0.23492 0.14446-0.37938-0.03983-0.14446-0.17349-0.2437-0.32335-0.2437zm-18.904 61.792c-8.954 0-14.97-4.182-14.97-10.407 0-4.0645 2.4606-7.0179 7.3069-8.7738 3.8809-1.3062 8.8906-1.3711 8.9405-1.3711 0.84855 0 1.2752 0 1.953 0.08506 6.2652 4.4588 9.2774 6.7999 9.2774 11.259-0.000675 5.68-4.7936 9.2078-12.508 9.2078zm-0.084-34.279c-7.5148 0-10.634-9.8782-10.634-15.167 0-2.6894 0.61161-4.7538 1.8699-6.3125 1.3656-1.7086 3.7041-2.8123 5.9574-2.8123 6.8998 0 10.715 9.274 10.715 15.684 0 1.0112 0 4.0875-2.1251 6.2241-1.4291 1.4264-3.7533 2.3843-5.7839 2.3843z"/>
<path d="m81.437 47.847h-8.2142v-8.1851c0-0.18632-0.15189-0.33753-0.33753-0.33753h-3.5333c-0.18632 0-0.33753 0.15121-0.33753 0.33753v8.1851h-8.173c-0.18632 0-0.33753 0.15121-0.33753 0.33753v3.5805c0 0.18564 0.15121 0.33753 0.33753 0.33753h8.173v8.2378c0 0.18564 0.15121 0.33753 0.33753 0.33753h3.5333c0.18564 0 0.33753-0.15189 0.33753-0.33753v-8.2391h8.2142c0.18632 0 0.33753-0.15054 0.33753-0.33753v-3.5792c0-0.18699-0.15054-0.33753-0.33753-0.33753z"/>
</g>
</svg>
