<?xml version="1.0" encoding="utf-8"?>
<!-- Generator: Adobe Illustrator 22.0.0, SVG Export Plug-In . SVG Version: 6.00 Build 0)  -->
<svg version="1.1"
	 id="Capa_1" xmlns:cc="http://creativecommons.org/ns#" xmlns:dc="http://purl.org/dc/elements/1.1/" xmlns:rdf="http://www.w3.org/1999/02/22-rdf-syntax-ns#"
	 xmlns="http://www.w3.org/2000/svg" xmlns:xlink="http://www.w3.org/1999/xlink" x="0px" y="0px" viewBox="0 0 100 64"
	 style="enable-background:new 0 0 100 64;" xml:space="preserve">
<g>
	<path d="M35.1,38.6h15.6C48,46.3,40.5,51.9,31.8,51.8c-10.6-0.1-19.3-8.5-19.7-19.1C11.7,21.5,20.8,12.1,32,12.1
		c5.1,0,9.8,2,13.3,5.2c0.8,0.8,2.1,0.8,2.9,0l5.7-5.4c0.9-0.8,0.9-2.3,0-3.1c-5.5-5.3-13-8.6-21.3-8.8C15-0.3,0.1,14.1,0,31.8
		S14.2,64,32,64c17.1,0,31-13.4,31.9-30.2c0-0.2,0-7.3,0-7.3H35.1c-1.2,0-2.1,1-2.1,2.1v7.9C32.9,37.6,33.9,38.6,35.1,38.6
		L35.1,38.6z"/>
	<path d="M90.4,27.2v-7.7c0-1-0.8-1.9-1.9-1.9H82c-1,0-1.9,0.8-1.9,1.9v7.7h-7.7c-1,0-1.9,0.8-1.9,1.9v6.5c0,1,0.8,1.9,1.9,1.9h7.7
		v7.7c0,1,0.8,1.9,1.9,1.9h6.5c1,0,1.9-0.8,1.9-1.9v-7.7h7.7c1,0,1.9-0.8,1.9-1.9V29c0-1-0.8-1.9-1.9-1.9h-7.7V27.2z"/>
</g>
</svg>
