<svg xmlns:rdf="http://www.w3.org/1999/02/22-rdf-syntax-ns#" xmlns="http://www.w3.org/2000/svg" height="100" width="100" version="1.1" xmlns:cc="http://creativecommons.org/ns#" xmlns:dc="http://purl.org/dc/elements/1.1/" viewBox="0 0 100 100">
<path style="fill:#000000" d="m38.891 83.953c-5.3648-0.16966-7.7063-0.49205-10.422-1.435-5.4488-1.8918-9.2284-5.7319-11.074-11.251-1.2476-3.7316-1.4108-6.192-1.4108-21.275s0.16316-17.543 1.4108-21.275c2.211-6.613 7.3512-10.913 14.508-12.136 2.9579-0.50568 5.9212-0.6047 18.097-0.6047 15.083 0 17.543 0.16317 21.275 1.4108 5.6181 1.8784 9.4519 5.7122 11.33 11.33 1.2476 3.7315 1.4108 6.192 1.4108 21.275s-0.16316 17.543-1.4108 21.275c-1.8784 5.6181-5.7122 9.4519-11.33 11.33-1.9646 0.65686-4.0394 1.024-6.8785 1.2173-2.7217 0.18527-20.903 0.28377-25.506 0.1382zm22.31-6.0914c5.1348-0.18784 6.631-0.40933 9.0294-1.3367 1.4262-0.55146 2.6264-1.3464 3.791-2.5111 2.0115-2.0115 3.1461-4.5625 3.5663-8.0182 0.55491-4.5639 0.55491-27.443 0-32.007-0.42017-3.4556-1.5548-6.0066-3.5663-8.0182-2.0115-2.0115-4.5625-3.1461-8.0182-3.5663-4.5639-0.55493-27.443-0.55493-32.007 0-3.4556 0.42015-6.0067 1.5548-8.0182 3.5663s-3.1461 4.5626-3.5663 8.0182c-0.55491 4.564-0.55491 27.443 0 32.007 0.42017 3.4556 1.5548 6.0067 3.5663 8.0182 1.1647 1.1647 2.3649 1.9597 3.791 2.5111 2.3228 0.89813 4.0822 1.1725 8.5276 1.3298 4.2604 0.15075 18.852 0.15516 22.904 0.007zm-13.975-10.627c-5.7154-0.96572-10.506-4.5553-12.992-9.7344-2.0526-4.2767-2.2262-9.5682-0.45873-13.984 3.7878-9.4624 14.853-13.678 24.004-9.1445 5.9207 2.9335 9.6724 8.9921 9.6724 15.62 0 9.6979-7.8896 17.521-17.587 17.438-0.85573-0.007-2.0429-0.0955-2.6382-0.19611zm5.8226-6.2676c3.6986-1.0229 6.8714-4.1921 7.9346-7.9257 0.44718-1.5703 0.44718-4.5278 0-6.0981-1.0621-3.7297-4.205-6.8726-7.9346-7.9346-0.90748-0.25841-1.4118-0.30963-3.0491-0.30963-2.3546 0-3.4794 0.2655-5.3168 1.2549-2.0448 1.1011-3.6206 2.6769-4.7217 4.7217-0.98939 1.8374-1.2549 2.9622-1.2549 5.3168s0.26548 3.4794 1.2549 5.3168c1.6335 3.0335 4.3428 5.0764 7.7538 5.8465 1.2826 0.28955 3.9455 0.19546 5.3338-0.18848zm14.503-25.199c-1.9807-0.29344-3.3653-1.9282-3.3653-3.9731 0-1.5501 0.80903-2.9104 2.133-3.5865 0.8821-0.45049 2.7922-0.48684 3.6362-0.0692 0.69277 0.34277 1.5541 1.2042 1.8969 1.8969 0.41606 0.84085 0.38127 2.7542-0.066 3.6299-0.78421 1.5353-2.4568 2.3655-4.2348 2.1021z"/>
</svg>
