<?xml version="1.0" encoding="utf-8"?>
<!-- Generator: Adobe Illustrator 22.0.0, SVG Export Plug-In . SVG Version: 6.00 Build 0)  -->
<svg version="1.1"
	 id="Capa_1" xmlns:cc="http://creativecommons.org/ns#" xmlns:dc="http://purl.org/dc/elements/1.1/" xmlns:rdf="http://www.w3.org/1999/02/22-rdf-syntax-ns#"
	 xmlns="http://www.w3.org/2000/svg" xmlns:xlink="http://www.w3.org/1999/xlink" x="0px" y="0px" viewBox="0 0 68 68"
	 style="enable-background:new 0 0 68 68;" xml:space="preserve">
<path d="M22.9,68c-5.4-0.2-7.7-0.5-10.4-1.4C7,64.6,3.3,60.8,1.4,55.3C0.2,51.6,0,49.1,0,34s0.2-17.5,1.4-21.3
	C3.6,6.1,8.8,1.8,15.9,0.6C18.9,0.1,21.8,0,34,0c15.1,0,17.5,0.2,21.3,1.4c5.6,1.9,9.5,5.7,11.3,11.3C67.9,16.5,68,18.9,68,34
	s-0.2,17.5-1.4,21.3c-1.9,5.6-5.7,9.5-11.3,11.3c-2,0.7-4,1-6.9,1.2C45.7,68,27.5,68.1,22.9,68L22.9,68z M45.2,61.9
	c5.1-0.2,6.6-0.4,9-1.3c1.4-0.6,2.6-1.3,3.8-2.5c2-2,3.1-4.6,3.6-8c0.6-4.6,0.6-27.4,0-32c-0.4-3.5-1.6-6-3.6-8c-2-2-4.6-3.1-8-3.6
	c-4.6-0.6-27.4-0.6-32,0C14.6,6.8,12,8,10,10s-3.1,4.6-3.6,8c-0.6,4.6-0.6,27.4,0,32c0.4,3.5,1.6,6,3.6,8c1.2,1.2,2.4,2,3.8,2.5
	c2.3,0.9,4.1,1.2,8.5,1.3C26.6,62,41.2,62,45.2,61.9L45.2,61.9z M31.2,51.3c-5.7-1-10.5-4.6-13-9.7c-2.1-4.3-2.2-9.6-0.5-14
	c3.8-9.5,14.9-13.7,24-9.1c5.9,2.9,9.7,9,9.7,15.6c0,9.7-7.9,17.5-17.6,17.4C33,51.4,31.8,51.4,31.2,51.3L31.2,51.3z M37.1,45
	c3.7-1,6.9-4.2,7.9-7.9c0.4-1.6,0.4-4.5,0-6.1c-1.1-3.7-4.2-6.9-7.9-7.9c-0.9-0.3-1.4-0.3-3-0.3c-2.4,0-3.5,0.3-5.3,1.3
	c-2,1.1-3.6,2.7-4.7,4.7c-1,1.8-1.3,3-1.3,5.3s0.3,3.5,1.3,5.3c1.6,3,4.3,5.1,7.8,5.8C33,45.5,35.7,45.4,37.1,45L37.1,45z
	 M51.6,19.8c-2-0.3-3.4-1.9-3.4-4c0-1.6,0.8-2.9,2.1-3.6c0.9-0.5,2.8-0.5,3.6-0.1c0.7,0.3,1.6,1.2,1.9,1.9c0.4,0.8,0.4,2.8-0.1,3.6
	C55,19.2,53.3,20.1,51.6,19.8L51.6,19.8z"/>
</svg>
