<?xml version="1.0" encoding="utf-8"?>
<!-- Generator: Adobe Illustrator 22.0.0, SVG Export Plug-In . SVG Version: 6.00 Build 0)  -->
<svg version="1.1"
	 id="Capa_1" xmlns:cc="http://creativecommons.org/ns#" xmlns:dc="http://purl.org/dc/elements/1.1/" xmlns:rdf="http://www.w3.org/1999/02/22-rdf-syntax-ns#"
	 xmlns="http://www.w3.org/2000/svg" xmlns:xlink="http://www.w3.org/1999/xlink" x="0px" y="0px" viewBox="0 0 60.2 76.5"
	 style="enable-background:new 0 0 60.2 76.5;" xml:space="preserve">
<path d="M52.4,7.8C47.1,2.8,39.8,0,31.8,0C19.7,0,12.2,5,8,9.2c-5.1,5.2-8,12-8,18.8C0,36.5,3.6,43,9.5,45.5
	c0.4,0.2,0.8,0.2,1.2,0.2c1.3,0,2.3-0.8,2.6-2.1c0.2-0.8,0.7-2.6,0.9-3.4c0.4-1.6,0.1-2.4-0.9-3.5c-1.7-2-2.5-4.5-2.5-7.6
	c0-9.3,7-19.3,19.8-19.3c10.2,0,16.6,5.8,16.6,15.2c0,5.9-1.3,11.4-3.6,15.4c-1.6,2.8-4.4,6.1-8.8,6.1c-1.9,0-3.6-0.8-4.6-2.1
	c-1-1.3-1.3-2.9-0.9-4.6c0.5-1.9,1.1-3.9,1.7-5.9c1.1-3.6,2.1-6.9,2.1-9.6c0-4.6-2.8-7.7-7-7.7c-5.3,0-9.5,5.4-9.5,12.3
	c0,3.4,0.9,5.9,1.3,6.9c-0.7,2.8-4.7,19.7-5.4,22.9c-0.4,1.9-3.1,16.6,1.3,17.7c4.9,1.3,9.3-13,9.7-14.6c0.4-1.3,1.6-6.3,2.4-9.3
	c2.4,2.3,6.2,3.8,9.9,3.8c7,0,13.3-3.1,17.7-8.8c4.3-5.5,6.6-13.2,6.6-21.7C60.2,19.1,57.3,12.6,52.4,7.8L52.4,7.8z"/>
</svg>
