<svg xmlns:rdf="http://www.w3.org/1999/02/22-rdf-syntax-ns#" xmlns="http://www.w3.org/2000/svg" height="100" width="100" version="1.1" xmlns:cc="http://creativecommons.org/ns#" xmlns:dc="http://purl.org/dc/elements/1.1/" viewBox="0 0 99.999994 99.999961">
<path d="m72.279 19.57c-5.2691-5.0583-12.561-7.8441-20.532-7.8441-12.177 0-19.666 4.9913-23.804 9.1783-5.1002 5.16-8.0249 12.011-8.0249 18.798 0 8.5209 3.5641 15.061 9.5326 17.494 0.4007 0.16418 0.80387 0.24687 1.1991 0.24687 1.2591 0 2.2568-0.82386 2.6024-2.1454 0.20148-0.75821 0.66834-2.6286 0.87128-3.4406 0.43451-1.6035 0.0834-2.3748-0.86411-3.4915-1.7262-2.0425-2.5301-4.4578-2.5301-7.6012 0-9.3368 6.9524-19.26 19.838-19.26 10.224 0 16.575 5.811 16.575 15.165 0 5.9029-1.2715 11.369-3.5809 15.394-1.6048 2.796-4.4267 6.129-8.7589 6.129-1.8734 0-3.5562-0.76956-4.618-2.1112-1.0031-1.2683-1.3337-2.9066-0.93029-4.6141 0.45576-1.9292 1.0772-3.9416 1.6786-5.887 1.0969-3.5532 2.1339-6.9092 2.1339-9.5867 0-4.5798-2.8155-7.657-7.0055-7.657-5.3249 0-9.4966 5.4083-9.4966 12.313 0 3.3861 0.8999 5.9187 1.3073 6.8912-0.67079 2.8422-4.6576 19.739-5.4138 22.926-0.43723 1.8601-3.0713 16.551 1.2885 17.723 4.8985 1.3162 9.2771-12.992 9.7227-14.609 0.36119-1.3149 1.625-6.287 2.3995-9.3435 2.3647 2.2778 6.1722 3.8176 9.877 3.8176 6.9842 0 13.265-3.1429 17.686-8.8492 4.2877-5.5348 6.6492-13.249 6.6492-21.721 0-6.623-2.8442-13.152-7.8027-17.913z"/>
</svg>
