<svg xmlns:rdf="http://www.w3.org/1999/02/22-rdf-syntax-ns#" xmlns="http://www.w3.org/2000/svg" height="100" width="100" version="1.1" xmlns:cc="http://creativecommons.org/ns#" xmlns:dc="http://purl.org/dc/elements/1.1/" viewBox="0 0 99.999994 99.999987">
<path style="fill:#000000" d="m34.1 79.518c-2.7356-0.1855-4.744-0.46691-7.055-0.98853-4.3438-0.98048-8.5664-2.6818-12.47-5.0239-0.97797-0.58687-1.1114-0.68442-0.86278-0.63092 0.81051 0.17444 4.3502 0.23974 5.8158 0.10728 5.301-0.47903 10.081-2.1472 14.336-5.0027 0.81192-0.54492 1.7053-1.2138 1.7053-1.2768 0-0.0287-0.19488-0.0525-0.43307-0.0525-0.9794 0-2.6745-0.31044-3.8611-0.70709-3.8488-1.2866-6.977-4.0174-8.7442-7.6332-0.50417-1.0316-0.882-2.0467-0.74175-1.9929 0.0494 0.019 0.47369 0.0833 0.94289 0.14305 1.5863 0.20192 3.9178 0.0646 5.3278-0.31391l0.31953-0.0858-0.25562-0.0732c-0.14061-0.0402-0.29202-0.0733-0.33647-0.0734-0.22472-0.00091-2.0839-0.67534-2.774-1.0062-3.9794-1.9076-6.9321-5.4647-8.047-9.6939-0.2254-0.85506-0.4177-2.1534-0.47704-3.221l-0.0438-0.78721 0.56653 0.28392c0.91407 0.45809 2.0223 0.8683 3.0543 1.1305 0.94141 0.23921 2.2566 0.44756 2.8253 0.44756h0.28448l-0.65782-0.49528c-2.6606-2.0032-4.6375-4.9868-5.4522-8.2284-0.33707-1.3413-0.43769-2.1878-0.43677-3.6748 0.00091-2.0425 0.29251-3.6575 0.97584-5.4109 0.28979-0.7436 0.94112-2.0665 1.0174-2.0665 0.0287 0 0.31351 0.30916 0.63262 0.68703 2.9129 3.4493 6.6693 6.6084 10.754 9.044 1.2241 0.72992 3.9864 2.1142 5.2556 2.6337 4.0492 1.6575 8.1344 2.6696 12.38 3.067 1.1497 0.10764 1.7307 0.12459 1.7276 0.0505-0.00091-0.0264-0.0606-0.36429-0.13216-0.75095-0.16776-0.90623-0.23731-3.2765-0.12487-4.2556 0.32186-2.8025 1.4929-5.5854 3.27-7.7706 2.4148-2.9694 6.0494-4.9512 9.8894-5.3921 0.8829-0.10141 3.2876-0.0462 4.0996 0.094 3.0358 0.52441 5.7788 1.8917 7.8788 3.9275l0.62498 0.60586 0.78104-0.17782c2.8107-0.63996 5.5759-1.705 8.1467-3.1377 0.28998-0.16162 0.52726-0.27653 0.52726-0.25535 0 0.13159-0.51954 1.3959-0.82845 2.0161-1.1622 2.3332-2.85 4.2712-4.984 5.7227-0.72148 0.49074-0.70481 0.49633 0.74371 0.24925 2.2226-0.37914 4.6924-1.1122 6.8831-2.0428l0.24853-0.10564-0.30825 0.43597c-1.8703 2.645-4.0742 4.9529-6.5393 6.8479l-0.59866 0.46019-0.017 2.0921c-0.024 2.9448-0.24713 5.1647-0.79818 7.9399-2.2558 11.361-8.9719 21.536-18.241 27.638-6.0548 3.9853-12.835 6.1859-20.583 6.6806-0.90994 0.0582-4.4626 0.074-5.2098 0.0234z"/>
</svg>
