<?xml version="1.0" encoding="utf-8"?>
<!-- Generator: Adobe Illustrator 22.0.0, SVG Export Plug-In . SVG Version: 6.00 Build 0)  -->
<svg version="1.1"
	 id="Capa_1" xmlns:cc="http://creativecommons.org/ns#" xmlns:dc="http://purl.org/dc/elements/1.1/" xmlns:rdf="http://www.w3.org/1999/02/22-rdf-syntax-ns#"
	 xmlns="http://www.w3.org/2000/svg" xmlns:xlink="http://www.w3.org/1999/xlink" x="0px" y="0px" viewBox="0 0 72.8 59.1"
	 style="enable-background:new 0 0 72.8 59.1;" xml:space="preserve">
<path d="M20.5,59.1c-2.7-0.2-4.7-0.5-7.1-1c-4.3-1-8.6-2.7-12.5-5c-1-0.6-1.1-0.7-0.9-0.6c0.8,0.2,4.4,0.2,5.8,0.1
	c5.3-0.5,10.1-2.1,14.3-5c0.8-0.5,1.7-1.2,1.7-1.3c0,0-0.2-0.1-0.4-0.1c-1,0-2.7-0.3-3.9-0.7c-3.8-1.3-7-4-8.7-7.6
	c-0.5-1-0.9-2-0.7-2c0,0,0.5,0.1,0.9,0.1c1.6,0.2,3.9,0.1,5.3-0.3l0.3-0.1l-0.3-0.1c-0.1,0-0.3-0.1-0.3-0.1c-0.2,0-2.1-0.7-2.8-1
	c-4-1.9-6.9-5.5-8-9.7c-0.2-0.9-0.4-2.2-0.5-3.2l0-0.8L3.4,21c0.9,0.5,2,0.9,3.1,1.1c0.9,0.2,2.3,0.4,2.8,0.4h0.3l-0.7-0.5
	c-2.7-2-4.6-5-5.5-8.2C3.1,12.5,3,11.7,3,10.2c0-2,0.3-3.7,1-5.4c0.3-0.7,0.9-2.1,1-2.1c0,0,0.3,0.3,0.6,0.7c2.9,3.4,6.7,6.6,10.8,9
	c1.2,0.7,4,2.1,5.3,2.6c4,1.7,8.1,2.7,12.4,3.1c1.1,0.1,1.7,0.1,1.7,0.1c0,0-0.1-0.4-0.1-0.8c-0.2-0.9-0.2-3.3-0.1-4.3
	c0.3-2.8,1.5-5.6,3.3-7.8c2.4-3,6-5,9.9-5.4C49.6,0,52,0,52.8,0.1c3,0.5,5.8,1.9,7.9,3.9l0.6,0.6l0.8-0.2c2.8-0.6,5.6-1.7,8.1-3.1
	c0.3-0.2,0.5-0.3,0.5-0.3c0,0.1-0.5,1.4-0.8,2c-1.2,2.3-2.8,4.3-5,5.7c-0.7,0.5-0.7,0.5,0.7,0.2c2.2-0.4,4.7-1.1,6.9-2l0.2-0.1
	l-0.3,0.4c-1.9,2.6-4.1,5-6.5,6.8l-0.6,0.5l0,2.1c0,2.9-0.2,5.2-0.8,7.9c-2.3,11.4-9,21.5-18.2,27.6c-6.1,4-12.8,6.2-20.6,6.7
	C24.8,59.1,21.2,59.1,20.5,59.1L20.5,59.1z"/>
</svg>
