<svg xmlns:rdf="http://www.w3.org/1999/02/22-rdf-syntax-ns#" xmlns="http://www.w3.org/2000/svg" height="100" width="100" version="1.1" xmlns:cc="http://creativecommons.org/ns#" xmlns:dc="http://purl.org/dc/elements/1.1/" viewBox="0 0 99.999994 99.999977">
<defs>
<clipPath id="clipPath4342" clipPathUnits="userSpaceOnUse">
<path d="m0 1066.9h1280.2v-1066.9h-1280.2v1066.9z"/>
</clipPath>
</defs>
<g>
<g style="fill:#000000" transform="matrix(.15861 0 0 -.15861 -51.544 134.22)" clip-path="url(#clipPath4342)">
<g style="fill:#000000" transform="translate(736.18 489.23)">
<path style="fill-rule:evenodd;fill:#000000" d="m0 0c-5.211 2.608-30.831 15.213-35.608 16.954-4.776 1.739-8.25 2.607-11.724-2.608-3.474-5.216-13.461-16.955-16.501-20.433-3.039-3.477-6.079-3.914-11.29-1.304-5.211 2.608-22.002 8.11-41.906 25.865-15.491 13.818-25.95 30.882-28.989 36.099-3.04 5.217-0.325 8.037 2.284 10.635 2.345 2.335 5.212 6.087 7.817 9.13 2.606 3.042 3.474 5.217 5.211 8.693 1.737 3.479 0.869 6.521-0.435 9.129-1.302 2.608-11.724 28.259-16.066 38.694-4.23 10.16-8.526 8.784-11.725 8.945-3.036 0.151-6.514 0.183-9.987 0.183-3.474 0-9.12-1.304-13.897-6.52-4.776-5.217-18.238-17.825-18.238-43.473 0-25.651 18.672-50.429 21.278-53.907 2.606-3.479 36.745-56.113 89.021-78.685 12.432-5.37 22.139-8.576 29.707-10.977 12.483-3.967 23.843-3.407 32.822-2.065 10.012 1.495 30.831 12.605 35.174 24.777 4.356 12.177 4.356 22.61 3.053 24.783-1.302 2.174-4.776 3.478-9.987 6.087m-95.082-129.82h-0.07c-31.105 0.012-61.613 8.369-88.227 24.162l-6.33 3.757-65.606-17.21 17.511 63.966-4.121 6.559c-17.352 27.598-26.517 59.496-26.503 92.25 0.038 95.573 77.8 173.33 173.42 173.33 46.3-0.016 89.822-18.07 122.55-50.836 32.725-32.76 50.738-76.314 50.72-122.63-0.039-95.582-77.8-173.34-173.34-173.34m147.53 320.87c-39.375 39.421-91.739 61.14-147.53 61.163-114.95 0-208.51-93.552-208.56-208.54-0.015-36.758 9.588-72.635 27.839-104.26l-29.587-108.07 110.56 29.001c30.462-16.615 64.759-25.373 99.664-25.384h0.085 0.001c114.94 0 208.51 93.561 208.55 208.55 0.021 55.726-21.652 108.12-61.027 147.54"/>
</g>
</g>
</g>
</svg>
