<?xml version="1.0" encoding="utf-8"?>
<!-- Generator: Adobe Illustrator 22.0.0, SVG Export Plug-In . SVG Version: 6.00 Build 0)  -->
<svg version="1.1"
	 id="Capa_1" xmlns:cc="http://creativecommons.org/ns#" xmlns:dc="http://purl.org/dc/elements/1.1/" xmlns:rdf="http://www.w3.org/1999/02/22-rdf-syntax-ns#"
	 xmlns="http://www.w3.org/2000/svg" xmlns:xlink="http://www.w3.org/1999/xlink" x="0px" y="0px" viewBox="0 0 66.4 66.8"
	 style="enable-background:new 0 0 66.4 66.8;" xml:space="preserve">
<path d="M48.4,40c-0.8-0.4-4.9-2.4-5.6-2.7c-0.8-0.3-1.3-0.4-1.9,0.4c-0.6,0.8-2.1,2.7-2.6,3.2c-0.5,0.6-1,0.6-1.8,0.2
	c-0.8-0.4-3.5-1.3-6.6-4.1c-2.5-2.2-4.1-4.9-4.6-5.7c-0.5-0.8-0.1-1.3,0.4-1.7c0.4-0.4,0.8-1,1.2-1.4c0.4-0.5,0.6-0.8,0.8-1.4
	c0.3-0.6,0.1-1-0.1-1.4c-0.2-0.4-1.9-4.5-2.5-6.1c-0.7-1.6-1.4-1.4-1.9-1.4c-0.5,0-1,0-1.6,0c-0.6,0-1.4,0.2-2.2,1
	c-0.8,0.8-2.9,2.8-2.9,6.9c0,4.1,3,8,3.4,8.6c0.4,0.6,5.8,8.9,14.1,12.5c2,0.9,3.5,1.4,4.7,1.7c2,0.6,3.8,0.5,5.2,0.3
	c1.6-0.2,4.9-2,5.6-3.9c0.7-1.9,0.7-3.6,0.5-3.9C49.8,40.6,49.3,40.4,48.4,40 M33.4,60.6L33.4,60.6c-4.9,0-9.8-1.3-14-3.8l-1-0.6
	L7.9,58.9l2.8-10.1l-0.7-1c-2.8-4.4-4.2-9.4-4.2-14.6c0-15.2,12.3-27.5,27.5-27.5c7.3,0,14.2,2.9,19.4,8.1c5.2,5.2,8,12.1,8,19.5
	C60.8,48.3,48.5,60.6,33.4,60.6 M56.8,9.7C50.5,3.4,42.2,0,33.4,0C15.1,0,0.3,14.8,0.3,33.1c0,5.8,1.5,11.5,4.4,16.5L0,66.8
	l17.5-4.6c4.8,2.6,10.3,4,15.8,4h0h0c18.2,0,33.1-14.8,33.1-33.1C66.4,24.3,63,16,56.8,9.7"/>
</svg>
