<svg xmlns:rdf="http://www.w3.org/1999/02/22-rdf-syntax-ns#" xmlns="http://www.w3.org/2000/svg" height="100" width="100" version="1.1" xmlns:cc="http://creativecommons.org/ns#" xmlns:dc="http://purl.org/dc/elements/1.1/" viewBox="0 0 99.999994 99.999969">
<g>
<path style="fill:#ffffff" d="m87.266 34.795s-0.7436-5.2406-3.0242-7.5491c-2.8907-3.0285-6.1329-3.0428-7.6193-3.2203-10.642-0.7698-26.605-0.7698-26.605-0.7698h-0.0337s-15.963 0-26.605 0.7698c-1.4863 0.1775-4.7269 0.1918-7.6193 3.2203-2.2806 2.3085-3.0225 7.5491-3.0225 7.5491s-0.7605 6.1541-0.7605 12.308v5.7705c0 6.1532 0.7605 12.307 0.7605 12.307s0.7419 5.2407 3.0225 7.5492c2.8924 3.0294 6.6923 2.9321 8.3848 3.2498 6.0848 0.5839 25.857 0.7648 25.857 0.7648s15.98-0.024 26.622-0.7935c1.4863-0.1775 4.7286-0.1917 7.6193-3.2211 2.2806-2.3085 3.0242-7.5492 3.0242-7.5492s0.7588-6.154 0.7588-12.307v-5.7705c0-6.154-0.7588-12.308-0.7588-12.308"/>
<path style="fill:#000000" d="m42.149 59.864-0.003-21.367 20.548 10.72-20.545 10.647zm45.117-25.069s-0.7436-5.2406-3.0242-7.5491c-2.8907-3.0285-6.1329-3.0428-7.6193-3.2203-10.642-0.7698-26.605-0.7698-26.605-0.7698h-0.0337s-15.963 0-26.605 0.7698c-1.4863 0.1775-4.7269 0.1918-7.6193 3.2203-2.2806 2.3085-3.0225 7.5491-3.0225 7.5491s-0.7605 6.1541-0.7605 12.308v5.7705c0 6.1532 0.7605 12.307 0.7605 12.307s0.7419 5.2407 3.0225 7.5492c2.8924 3.0294 6.6923 2.9321 8.3848 3.2498 6.0848 0.5839 25.857 0.7648 25.857 0.7648s15.98-0.024 26.622-0.7935c1.4863-0.1775 4.7286-0.1917 7.6193-3.2211 2.2806-2.3085 3.0242-7.5492 3.0242-7.5492s0.7588-6.154 0.7588-12.307v-5.7705c0-6.154-0.7588-12.308-0.7588-12.308"/>
</g>
</svg>
