<?xml version="1.0" encoding="utf-8"?>
<!-- Generator: Adobe Illustrator 22.0.0, SVG Export Plug-In . SVG Version: 6.00 Build 0)  -->
<svg version="1.1"
	 id="Capa_1" xmlns:cc="http://creativecommons.org/ns#" xmlns:dc="http://purl.org/dc/elements/1.1/" xmlns:rdf="http://www.w3.org/1999/02/22-rdf-syntax-ns#"
	 xmlns="http://www.w3.org/2000/svg" xmlns:xlink="http://www.w3.org/1999/xlink" x="0px" y="0px" viewBox="0 0 76 53.5"
	 style="enable-background:new 0 0 76 53.5;" xml:space="preserve">
<g>
	<path d="M30.2,36.6l0-21.4L50.7,26C50.7,26,30.2,36.6,30.2,36.6z M75.3,11.5c0,0-0.7-5.2-3-7.5c-2.9-3-6.1-3-7.6-3.2
		C54,0,38,0,38,0h0c0,0-16,0-26.6,0.8C9.9,0.9,6.7,1,3.8,4c-2.3,2.3-3,7.5-3,7.5S0,17.7,0,23.8v5.8c0,6.2,0.8,12.3,0.8,12.3
		s0.7,5.2,3,7.5c2.9,3,6.7,2.9,8.4,3.2c6.1,0.6,25.9,0.8,25.9,0.8s16,0,26.6-0.8c1.5-0.2,4.7-0.2,7.6-3.2c2.3-2.3,3-7.5,3-7.5
		S76,35.8,76,29.6v-5.8C76,17.7,75.3,11.5,75.3,11.5"/>
</g>
</svg>
